# xmcd
#
# Track frame offsets:
#	180
#	16977
#	30706
#	47401
#
# Disc length: 815 seconds
#
# Revision: 1
# Processed by: cddbd v1.5.2PL0 Copyright (c) Steve Scherf et al.
# Submitted via: EasyCDDAExtractor 10.0.6.1
#
DISCID=24032d04
DTITLE=Various Artist - ACA Dove Series
DYEAR=1997
DGENRE=Pop
TTITLE0=Cindy Sites - Hiding In The Blood
TTITLE1=Won By One - Gone With The Wind
TTITLE2=The Gospel Enforcers - I've Got The Papers To Prove It
TTITLE3=The Greenes - When The Cross Was Lifted High
EXTD=YEAR: 1997
EXTT0=
EXTT1=
EXTT2=
EXTT3=
PLAYORDER=
